<?xml version="1.0" encoding="utf-8"?>
<!-- Generator: Adobe Illustrator 25.1.0, SVG Export Plug-In . SVG Version: 6.00 Build 0)  -->
<svg version="1.1" id="Layer_1" xmlns="http://www.w3.org/2000/svg" xmlns:xlink="http://www.w3.org/1999/xlink" x="0px" y="0px"
	 width="1194.843px" height="429.619px" viewBox="0 0 1194.843 429.619" style="enable-background:new 0 0 1194.843 429.619;"
	 xml:space="preserve">
<g>
	<g>
		<g>
			<g>
				<g>
					<rect x="589.676" y="136.957" style="fill:#003F96;" width="54.277" height="194.838"/>
				</g>
				<path id="SVGID_76_" style="fill:#003F96;" d="M569.909,241.319c7.233-9.834,10.849-22.268,10.849-37.303v-0.549
					c0-19.119-5.75-34.235-17.249-45.369c-6.502-6.684-14.933-11.865-25.336-15.583c-10.402-3.718-23.101-5.567-38.136-5.567
					h-92.139V304.14L337.23,136.949H284.03l-82.371,194.843h56.787l13.917-34.783h75.154l14.202,34.783h46.202h11.682h42.301V272.79
					h23.101h0.549l39.253,59.001h62.354l-46.466-67.921C552.944,258.67,562.676,251.173,569.909,241.319z M288.23,255.236
					l21.983-55.385l21.719,55.385H288.23z M526.491,207.368c0,7.05-2.499,12.658-7.517,16.843
					c-5.018,4.165-12.15,6.258-21.435,6.258h-35.637v-46.75h35.352c9.082,0,16.233,1.91,21.435,5.709s7.802,9.61,7.802,17.392
					V207.368L526.491,207.368z"/>
				<polygon id="SVGID_75_" style="fill:#003F96;" points="219.366,217.1 151.425,217.1 151.425,184.268 233.243,184.268 
					253.296,136.949 97.421,136.949 97.421,331.792 151.425,331.792 151.425,262.205 200.308,262.205 				"/>
			</g>
		</g>
	</g>
	<g>
		<path style="fill:#003F96;" d="M697.881,190.437h25.653v3.722h-21.624v12.75h19.329v3.671h-19.329v15.556h-4.029V190.437z"/>
		<path style="fill:#003F96;" d="M726.044,208.387v-0.102c0-9.843,7.393-18.461,18.256-18.461s18.156,8.517,18.156,18.36
			c0.051,0.051,0.051,0.051,0,0.102c0,9.843-7.395,18.461-18.258,18.461S726.044,218.23,726.044,208.387z M758.276,208.387v-0.102
			c0-8.108-5.917-14.738-14.078-14.738c-8.159,0-13.972,6.529-13.972,14.637v0.102c0,8.108,5.915,14.739,14.074,14.739
			C752.461,223.025,758.276,216.497,758.276,208.387z"/>
		<path style="fill:#003F96;" d="M768.377,190.437h15.352c4.386,0,7.902,1.326,10.146,3.569c1.735,1.735,2.755,4.233,2.755,7.037
			v0.102c0,5.917-4.078,9.384-9.69,10.405l10.964,14.587h-4.946l-10.354-13.872h-0.102h-10.097v13.872h-4.029V190.437z
			 M783.371,208.643c5.355,0,9.181-2.755,9.181-7.344v-0.104c0-4.386-3.368-7.037-9.13-7.037h-11.015v14.485H783.371z"/>
		<path style="fill:#003F96;" d="M824.877,194.159h-11.985v-3.722h28.048v3.722h-11.983v31.977h-4.08V194.159z"/>
		<path style="fill:#003F96;" d="M845.299,190.437h4.029v15.859h20.602v-15.859h4.029v35.699h-4.029v-16.065h-20.602v16.065h-4.029
			V190.437z"/>
		<path style="fill:#003F96;" d="M881.752,190.437h25.806v3.671h-21.776v12.188h19.482v3.673h-19.482v12.494h22.031v3.673h-26.06
			V190.437z"/>
		<path style="fill:#003F96;" d="M696.301,261.42v-0.104c0-10.097,7.548-18.46,18.054-18.46c6.475,0,10.352,2.295,13.921,5.66
			l-2.753,2.958c-3.009-2.857-6.375-4.897-11.221-4.897c-7.904,0-13.821,6.426-13.821,14.636v0.102
			c0,8.263,5.968,14.739,13.821,14.739c4.897,0,8.108-1.887,11.526-5.149l2.651,2.6c-3.722,3.773-7.802,6.273-14.279,6.273
			C703.9,279.78,696.301,271.67,696.301,261.42z"/>
		<path style="fill:#003F96;" d="M730.234,261.42v-0.104c0-9.841,7.397-18.46,18.26-18.46s18.154,8.517,18.154,18.358
			c0.051,0.051,0.051,0.051,0,0.102c0,9.845-7.393,18.463-18.256,18.463S730.234,271.262,730.234,261.42z M762.466,261.42v-0.104
			c0-8.108-5.915-14.737-14.074-14.737c-8.161,0-13.976,6.528-13.976,14.636v0.102c0,8.11,5.917,14.739,14.078,14.739
			C756.653,276.056,762.466,269.528,762.466,261.42z"/>
		<path style="fill:#003F96;" d="M772.569,243.467h4.08l13.005,19.482l13.005-19.482h4.08v35.699h-4.029V250.25l-13.005,19.125
			h-0.204l-13.005-19.074v28.866h-3.928V243.467z"/>
		<path style="fill:#003F96;" d="M814.555,243.467h4.08l13.005,19.482l13.005-19.482h4.08v35.699h-4.029V250.25l-13.005,19.125
			h-0.204l-13.005-19.074v28.866h-3.928V243.467z"/>
		<path style="fill:#003F96;" d="M854.728,261.42v-0.104c0-9.841,7.393-18.46,18.256-18.46s18.156,8.517,18.156,18.358
			c0.051,0.051,0.051,0.051,0,0.102c0,9.845-7.395,18.463-18.258,18.463S854.728,271.262,854.728,261.42z M886.96,261.42v-0.104
			c0-8.108-5.917-14.737-14.078-14.737c-8.159,0-13.972,6.528-13.972,14.636v0.102c0,8.11,5.915,14.739,14.074,14.739
			C881.145,276.056,886.96,269.528,886.96,261.42z"/>
		<path style="fill:#003F96;" d="M897.059,243.467h3.775l22.491,28.609v-28.609h3.926v35.699h-3.211l-23.053-29.273v29.273h-3.928
			V243.467z"/>
		<path style="fill:#003F96;" d="M945.961,261.42v-0.104c0-9.79,7.192-18.46,17.9-18.46c6.019,0,9.743,1.733,13.312,4.742
			l-2.602,3.06c-2.753-2.398-5.813-4.08-10.863-4.08c-7.904,0-13.565,6.681-13.565,14.636v0.102c0,8.517,5.457,14.841,14.127,14.841
			c4.08,0,7.853-1.58,10.301-3.569v-8.873h-10.863v-3.62h14.739v14.226c-3.315,2.958-8.313,5.459-14.33,5.459
			C952.896,279.78,945.961,271.619,945.961,261.42z"/>
		<path style="fill:#003F96;" d="M983.205,261.42v-0.104c0-9.841,7.397-18.46,18.26-18.46s18.154,8.517,18.154,18.358
			c0.051,0.051,0.051,0.051,0,0.102c0,9.845-7.393,18.463-18.256,18.463S983.205,271.262,983.205,261.42z M1015.436,261.42v-0.104
			c0-8.108-5.915-14.737-14.074-14.737c-8.161,0-13.976,6.528-13.976,14.636v0.102c0,8.11,5.917,14.739,14.078,14.739
			C1009.623,276.056,1015.436,269.528,1015.436,261.42z"/>
		<path style="fill:#003F96;" d="M1023.722,261.42v-0.104c0-9.841,7.397-18.46,18.26-18.46s18.154,8.517,18.154,18.358
			c0.051,0.051,0.051,0.051,0,0.102c0,9.845-7.393,18.463-18.256,18.463S1023.722,271.262,1023.722,261.42z M1055.954,261.42v-0.104
			c0-8.108-5.915-14.737-14.074-14.737c-8.161,0-13.976,6.528-13.976,14.636v0.102c0,8.11,5.917,14.739,14.078,14.739
			C1050.141,276.056,1055.954,269.528,1055.954,261.42z"/>
		<path style="fill:#003F96;" d="M1066.057,243.467h12.394c11.219,0,18.971,7.701,18.971,17.747v0.102
			c0,10.048-7.752,17.851-18.971,17.851h-12.394V243.467z M1078.451,275.445c9.026,0,14.788-6.121,14.788-14.025v-0.104
			c0-7.904-5.762-14.125-14.788-14.125h-8.364v28.253H1078.451z"/>
		<path style="fill:#003F96;" d="M698.136,296.5h16.576c4.08,0,7.291,1.122,9.332,3.16c1.633,1.633,2.447,3.622,2.447,6.07v0.102
			c0,4.029-2.142,6.273-4.691,7.701c4.131,1.582,6.681,3.979,6.681,8.774v0.102c0,6.528-5.302,9.79-13.361,9.79h-16.983V296.5z
			 M713.028,310.932c3.469,0,5.662-1.122,5.662-3.773v-0.102c0-2.348-1.837-3.673-5.153-3.673h-7.75v7.548H713.028z
			 M715.119,325.314c3.468,0,5.559-1.224,5.559-3.877v-0.102c0-2.397-1.784-3.875-5.813-3.875h-9.077v7.853H715.119z"/>
		<path style="fill:#003F96;" d="M734.722,296.5h16.321c4.539,0,8.057,1.275,10.403,3.62c1.989,1.989,3.06,4.795,3.06,8.159v0.102
			c0,5.764-3.111,9.384-7.65,11.068l8.721,12.748h-9.181l-7.648-11.423h-0.104h-6.068v11.423h-7.855V296.5z M750.532,313.84
			c3.824,0,6.017-2.04,6.017-5.05v-0.102c0-3.366-2.346-5.1-6.169-5.1h-7.802v10.252H750.532z"/>
		<path style="fill:#003F96;" d="M770.366,316.898V296.5h7.853v20.194c0,5.815,2.908,8.823,7.701,8.823
			c4.795,0,7.701-2.906,7.701-8.568V296.5h7.855v20.143c0,10.812-6.07,16.116-15.658,16.116S770.366,327.405,770.366,316.898z"/>
		<path style="fill:#003F96;" d="M806.308,326.997l4.642-5.561c3.213,2.653,6.579,4.335,10.657,4.335
			c3.215,0,5.153-1.273,5.153-3.364v-0.102c0-1.989-1.226-3.009-7.192-4.54c-7.192-1.835-11.832-3.824-11.832-10.914v-0.102
			c0-6.477,5.202-10.761,12.496-10.761c5.2,0,9.637,1.633,13.259,4.54l-4.08,5.915c-3.162-2.193-6.273-3.518-9.281-3.518
			c-3.011,0-4.591,1.376-4.591,3.109v0.102c0,2.348,1.529,3.113,7.701,4.693c7.242,1.885,11.321,4.488,11.321,10.71v0.102
			c0,7.088-5.404,11.066-13.107,11.066C816.051,332.709,810.592,330.821,806.308,326.997z"/>
		<path style="fill:#003F96;" d="M838.094,326.997l4.64-5.561c3.215,2.653,6.579,4.335,10.659,4.335
			c3.213,0,5.151-1.273,5.151-3.364v-0.102c0-1.989-1.224-3.009-7.192-4.54c-7.19-1.835-11.83-3.824-11.83-10.914v-0.102
			c0-6.477,5.2-10.761,12.494-10.761c5.202,0,9.639,1.633,13.259,4.54l-4.078,5.915c-3.164-2.193-6.273-3.518-9.283-3.518
			c-3.009,0-4.591,1.376-4.591,3.109v0.102c0,2.348,1.531,3.113,7.703,4.693c7.24,1.885,11.321,4.488,11.321,10.71v0.102
			c0,7.088-5.406,11.066-13.106,11.066C847.834,332.709,842.377,330.821,838.094,326.997z"/>
		<path style="fill:#003F96;" d="M872.661,296.5h26.928v6.986h-19.125v7.242h16.831v6.986h-16.831v7.497h19.38v6.986h-27.182V296.5z
			"/>
		<path style="fill:#003F96;" d="M906.694,296.5h7.853v28.559h17.798v7.139h-25.651V296.5z"/>
		<path style="fill:#003F96;" d="M935.869,326.997l4.642-5.561c3.213,2.653,6.579,4.335,10.657,4.335
			c3.215,0,5.153-1.273,5.153-3.364v-0.102c0-1.989-1.226-3.009-7.192-4.54c-7.192-1.835-11.832-3.824-11.832-10.914v-0.102
			c0-6.477,5.202-10.761,12.496-10.761c5.2,0,9.637,1.633,13.259,4.54l-4.08,5.915c-3.162-2.193-6.273-3.518-9.281-3.518
			c-3.011,0-4.591,1.376-4.591,3.109v0.102c0,2.348,1.529,3.113,7.701,4.693c7.242,1.885,11.321,4.488,11.321,10.71v0.102
			c0,7.088-5.404,11.066-13.107,11.066C945.612,332.709,940.153,330.821,935.869,326.997z"/>
	</g>
	<g>
		<g>
			<g>
				<path style="fill:#003F96;" d="M723.553,140.454l-1.408-3.35h-9.541l-12.466,29.495l-2.755,6.506h10.427l2.537-6.372h13.789
					l2.598,6.372h10.633L723.553,140.454z M713.26,159.025l4.03-10.16l3.993,10.16H713.26z"/>
				<path style="fill:#003F96;" d="M739.964,137.383v35.722h9.965v-35.722H739.964z"/>
			</g>
		</g>
	</g>
</g>
<linearGradient id="SVGID_1_" gradientUnits="userSpaceOnUse" x1="684.6891" y1="121.1163" x2="253.8214" y2="410.917">
	<stop  offset="0" style="stop-color:#00DCBE"/>
	<stop  offset="0.2451" style="stop-color:#00BAB5"/>
	<stop  offset="0.784" style="stop-color:#00639F"/>
	<stop  offset="1" style="stop-color:#003F96"/>
</linearGradient>
<path style="fill:url(#SVGID_1_);" d="M626.118,136.957L589.676,227.3v-90.343H626.118z M563.507,158.098
	c-6.493-6.691-14.925-11.857-25.337-15.578c-10.392-3.721-23.1-5.562-38.124-5.562h-14.985l-77.159,52.792v114.393l-37.511-88.719
	L327.753,244.6l4.177,10.63h-19.715l-110.018,75.299l-0.535,1.267h56.791l13.916-34.779h75.14l14.213,34.779h100.181v-59.008h23.654
	l39.253,59.008h22.724l14.688-36.442l-21.536-31.473c12.253-5.206,21.992-12.708,29.217-22.566
	c7.245-9.838,10.867-22.269,10.867-37.293v-0.554C580.768,184.346,575.008,169.242,563.507,158.098z M526.491,207.367
	c0,7.047-2.494,12.668-7.522,16.845c-5.008,4.157-12.154,6.255-21.437,6.255h-35.63v-46.755h35.353
	c9.086,0,16.232,1.92,21.438,5.721c5.206,3.801,7.799,9.6,7.799,17.38V207.367z"/>
<circle style="fill:#00DCBE;" cx="616.822" cy="83.697" r="34.986"/>
<circle style="fill:#00DCBE;" cx="744.952" cy="127.586" r="6.419"/>
<linearGradient id="SVGID_2_" gradientUnits="userSpaceOnUse" x1="738.2485" y1="127.3503" x2="710.8105" y2="198.6888">
	<stop  offset="0" style="stop-color:#00DCBE"/>
	<stop  offset="0.2451" style="stop-color:#00BAB5"/>
	<stop  offset="0.784" style="stop-color:#00639F"/>
	<stop  offset="1" style="stop-color:#003F96"/>
</linearGradient>
<path style="fill:url(#SVGID_2_);" d="M723.553,140.454l-23.415,26.145l-2.755,6.506h10.427l2.537-6.372h13.789l2.598,6.372h10.633
	L723.553,140.454z M713.26,159.025l4.03-10.16l3.993,10.16H713.26z M749.054,137.377l-5.136,35.728h-3.948v-35.728H749.054z"/>
</svg>
