<svg 
width="505" 
height="390" 
viewBox="0 0 431 376" 
fill="none" xmlns="http://www.w3.org/2000/svg">
<rect x="2.44116" y="2.31677" width="425.965" height="371.367" rx="13" stroke="#2F4FBB" stroke-width="4"/>
<path d="M372.958 1.9303H409.784C420.378 1.9303 428.966 10.5184 428.966 21.1123V57.9379H393.15C381.998 57.9379 372.958 48.8978 372.958 37.7463V1.9303Z" fill="#2250C6"/>
<path d="M413.696 23.7034L398.078 39.3214C397.871 39.5288 397.625 39.6934 397.354 39.8056C397.083 39.9179 396.793 39.9757 396.5 39.9757C396.206 39.9757 395.916 39.9179 395.645 39.8056C395.374 39.6934 395.128 39.5288 394.921 39.3214L388.228 32.6279C387.809 32.2093 387.574 31.6415 387.574 31.0494C387.574 30.4573 387.809 29.8895 388.228 29.4709C388.646 29.0522 389.214 28.817 389.806 28.817C390.398 28.817 390.966 29.0522 391.385 29.4709L396.5 34.5885L410.539 20.5463C410.746 20.339 410.992 20.1746 411.263 20.0624C411.534 19.9502 411.824 19.8925 412.118 19.8925C412.411 19.8925 412.701 19.9502 412.972 20.0624C413.243 20.1746 413.489 20.339 413.696 20.5463C413.903 20.7536 414.068 20.9997 414.18 21.2705C414.292 21.5414 414.35 21.8317 414.35 22.1248C414.35 22.418 414.292 22.7083 414.18 22.9791C414.068 23.25 413.903 23.4961 413.696 23.7034Z" fill="white"/>
</svg>
